<svg width="129" height="31" viewBox="0 0 129 31" fill="none" xmlns="http://www.w3.org/2000/svg">
<path d="M54.04 20.304C54.216 20.912 54.44 21.368 54.712 21.672C55 21.96 55.368 22.136 55.816 22.2V23.4C55.448 23.912 54.752 24.168 53.728 24.168C52.768 24.168 52.008 24.008 51.448 23.688C50.904 23.368 50.496 22.952 50.224 22.44C49.968 21.912 49.728 21.224 49.504 20.376C49.264 19.432 49.008 18.648 48.736 18.024C48.464 17.4 48.112 17.016 47.68 16.872H46.096V21.264C46.096 21.68 46.248 21.992 46.552 22.2C46.856 22.392 47.256 22.488 47.752 22.488C47.752 23.064 47.576 23.568 47.224 24H41.2C40.832 23.552 40.648 23.048 40.648 22.488C41.192 22.488 41.584 22.392 41.824 22.2C42.08 22.008 42.208 21.696 42.208 21.264V9.984C42.208 9.552 42.08 9.24 41.824 9.048C41.568 8.856 41.168 8.76 40.624 8.76C40.624 8.12 40.784 7.616 41.104 7.248C42.16 7.248 43.344 7.216 44.656 7.152C45.808 7.088 46.712 7.056 47.368 7.056C51.944 7.056 54.232 8.6 54.232 11.688C54.232 14.04 52.984 15.472 50.488 15.984C51.208 16.192 51.896 16.696 52.552 17.496C53.208 18.28 53.704 19.216 54.04 20.304ZM47.152 15.216C48.112 15.216 48.864 14.92 49.408 14.328C49.952 13.72 50.224 12.92 50.224 11.928C50.224 10.904 49.984 10.144 49.504 9.648C49.04 9.136 48.296 8.88 47.272 8.88C46.728 8.88 46.336 8.912 46.096 8.976V15.168C46.384 15.2 46.736 15.216 47.152 15.216ZM69.6717 23.352C69.0957 23.88 68.2157 24.144 67.0317 24.144C65.4157 24.144 64.6077 23.64 64.6077 22.632V14.904C64.6077 14.392 64.4637 14 64.1757 13.728C63.9037 13.44 63.5277 13.296 63.0477 13.296C62.7277 13.296 62.3917 13.4 62.0397 13.608C61.7037 13.816 61.4557 14.08 61.2957 14.4V21.408C61.2957 21.872 61.3917 22.208 61.5837 22.416C61.7917 22.608 62.1357 22.704 62.6157 22.704C62.6157 23.2 62.4317 23.632 62.0637 24H56.7597C56.3917 23.632 56.2077 23.2 56.2077 22.704C56.6877 22.704 57.0237 22.608 57.2157 22.416C57.4237 22.208 57.5277 21.872 57.5277 21.408V8.4C57.5277 8 57.4157 7.704 57.1917 7.512C56.9677 7.32 56.5437 7.224 55.9197 7.224V6.24C56.4957 5.936 57.2237 5.672 58.1037 5.448C58.9997 5.208 59.7197 5.088 60.2637 5.088C60.6317 5.088 60.8957 5.176 61.0557 5.352C61.2157 5.512 61.2957 5.792 61.2957 6.192V10.92L61.2477 12.84C61.6797 12.28 62.2237 11.824 62.8797 11.472C63.5517 11.12 64.2877 10.944 65.0877 10.944C66.2077 10.944 67.0557 11.248 67.6317 11.856C68.2077 12.448 68.4957 13.328 68.4957 14.496V21.216C68.4957 21.616 68.5917 21.936 68.7837 22.176C68.9917 22.416 69.2797 22.576 69.6477 22.656L69.6717 23.352ZM83.0772 11.256C83.3972 11.592 83.5572 12.08 83.5572 12.72C83.1732 12.72 82.8692 12.816 82.6452 13.008C82.4212 13.2 82.2372 13.52 82.0932 13.968L79.3572 22.488C78.6372 24.824 77.8692 26.504 77.0532 27.528C76.2372 28.552 75.2132 29.064 73.9812 29.064C73.0212 29.064 72.2852 28.864 71.7732 28.464C71.2612 28.064 71.0052 27.56 71.0052 26.952C71.0052 26.568 71.0932 26.224 71.2692 25.92C71.4612 25.616 71.7012 25.4 71.9892 25.272C72.4212 25.784 73.0612 26.04 73.9092 26.04C74.4212 26.04 74.9252 25.792 75.4212 25.296C75.9172 24.8 76.3252 24.072 76.6452 23.112H74.6772L70.9812 14.136C70.9492 14.04 70.8692 13.84 70.7412 13.536C70.6132 13.232 70.4532 13.024 70.2612 12.912C70.0692 12.784 69.8212 12.72 69.5172 12.72C69.5172 12.096 69.6852 11.608 70.0212 11.256H75.6852C76.0692 11.672 76.2612 12.16 76.2612 12.72C75.5252 12.72 75.1572 13.088 75.1572 13.824C75.1572 14.112 75.1972 14.376 75.2772 14.616L77.5092 21.12L79.0932 14.304C79.1412 14.08 79.1652 13.888 79.1652 13.728C79.1652 13.056 78.7732 12.72 77.9892 12.72C77.9892 12.064 78.1412 11.576 78.4452 11.256H83.0772ZM88.3878 13.416V20.184C88.3878 20.664 88.4838 21 88.6758 21.192C88.8678 21.368 89.1398 21.456 89.4918 21.456C89.7958 21.456 90.1158 21.376 90.4518 21.216C90.7878 21.056 91.0518 20.856 91.2438 20.616C91.4038 20.744 91.5158 20.936 91.5798 21.192C91.6598 21.448 91.6998 21.68 91.6998 21.888C91.6998 22.256 91.5718 22.616 91.3158 22.968C91.0598 23.32 90.6758 23.608 90.1638 23.832C89.6518 24.056 89.0358 24.168 88.3158 24.168C87.1958 24.168 86.2918 23.848 85.6038 23.208C84.9318 22.568 84.5958 21.504 84.5958 20.016V13.416H83.0838V11.952C83.4998 11.888 83.8998 11.624 84.2838 11.16C84.6838 10.68 85.0198 10.088 85.2918 9.384C85.5798 8.664 85.7638 7.952 85.8438 7.248C86.1318 7.2 86.3958 7.176 86.6358 7.176C87.2118 7.176 87.6358 7.344 87.9078 7.68C88.1958 8 88.3398 8.36 88.3398 8.76V11.28H91.1238C91.1238 11.76 91.0998 12.176 91.0518 12.528C91.0038 12.864 90.8998 13.16 90.7398 13.416H88.3878ZM105.883 23.352C105.307 23.88 104.427 24.144 103.243 24.144C101.627 24.144 100.819 23.64 100.819 22.632V14.904C100.819 14.392 100.675 14 100.387 13.728C100.115 13.44 99.7386 13.296 99.2586 13.296C98.9386 13.296 98.6026 13.4 98.2506 13.608C97.9146 13.816 97.6666 14.08 97.5066 14.4V21.408C97.5066 21.872 97.6026 22.208 97.7946 22.416C98.0026 22.608 98.3466 22.704 98.8266 22.704C98.8266 23.2 98.6426 23.632 98.2746 24H92.9706C92.6026 23.632 92.4186 23.2 92.4186 22.704C92.8986 22.704 93.2346 22.608 93.4266 22.416C93.6346 22.208 93.7386 21.872 93.7386 21.408V8.4C93.7386 8 93.6266 7.704 93.4026 7.512C93.1786 7.32 92.7546 7.224 92.1306 7.224V6.24C92.7066 5.936 93.4346 5.672 94.3146 5.448C95.2106 5.208 95.9306 5.088 96.4746 5.088C96.8426 5.088 97.1066 5.176 97.2666 5.352C97.4266 5.512 97.5066 5.792 97.5066 6.192V10.92L97.4586 12.84C97.8906 12.28 98.4346 11.824 99.0906 11.472C99.7626 11.12 100.499 10.944 101.299 10.944C102.419 10.944 103.267 11.248 103.843 11.856C104.419 12.448 104.707 13.328 104.707 14.496V21.216C104.707 21.616 104.803 21.936 104.995 22.176C105.203 22.416 105.491 22.576 105.859 22.656L105.883 23.352ZM126.44 21.408C126.44 22.096 126.832 22.512 127.616 22.656V23.352C127.008 23.88 126.024 24.144 124.664 24.144C123.992 24.144 123.464 24.056 123.08 23.88C122.696 23.688 122.504 23.36 122.504 22.896V14.904C122.504 14.392 122.36 14 122.072 13.728C121.8 13.44 121.432 13.296 120.968 13.296C120.392 13.296 119.896 13.488 119.48 13.872C119.496 13.952 119.504 14.072 119.504 14.232V21.408C119.504 21.872 119.6 22.208 119.792 22.416C119.984 22.608 120.288 22.704 120.704 22.704C120.704 23.184 120.512 23.616 120.128 24H115.016C114.648 23.6 114.464 23.168 114.464 22.704C114.864 22.704 115.152 22.608 115.328 22.416C115.504 22.208 115.592 21.872 115.592 21.408V14.904C115.592 14.408 115.448 14.016 115.16 13.728C114.872 13.44 114.512 13.296 114.08 13.296C113.76 13.296 113.44 13.376 113.12 13.536C112.8 13.68 112.536 13.88 112.328 14.136V21.408C112.328 21.872 112.408 22.208 112.568 22.416C112.744 22.608 113.032 22.704 113.432 22.704C113.432 23.2 113.24 23.632 112.856 24H107.648C107.264 23.616 107.072 23.184 107.072 22.704C107.552 22.704 107.896 22.608 108.104 22.416C108.312 22.208 108.416 21.872 108.416 21.408V14.376C108.416 13.944 108.296 13.64 108.056 13.464C107.816 13.272 107.4 13.176 106.808 13.176V12.12C107.32 11.816 108.04 11.544 108.968 11.304C109.912 11.064 110.624 10.944 111.104 10.944C111.456 10.944 111.728 11.056 111.92 11.28C112.128 11.488 112.264 11.888 112.328 12.48C112.744 12 113.272 11.624 113.912 11.352C114.552 11.08 115.264 10.944 116.048 10.944C117.648 10.944 118.688 11.48 119.168 12.552C119.584 12.04 120.12 11.648 120.776 11.376C121.448 11.088 122.192 10.944 123.008 10.944C124.144 10.944 125 11.224 125.576 11.784C126.152 12.344 126.44 13.16 126.44 14.232V21.408Z" fill="#121212"/>
<path fill-rule="evenodd" clip-rule="evenodd" d="M14.1497 15.7262C13.7657 23.0669 7.59189 28.9146 0 29V1C7.59189 1.08547 13.7657 6.9331 14.1497 14.2738C14.5287 7.02987 20.5459 1.2399 28 1.0064V28.9937C20.5459 28.7602 14.5287 22.9702 14.1497 15.7262Z" fill="#FF6428"/>
</svg>
